<?xml version="1.0" encoding="utf-8"?>
<!-- Generator: Adobe Illustrator 21.1.0, SVG Export Plug-In . SVG Version: 6.00 Build 0)  -->
<svg version="1.1" id="Слой_1" xmlns="http://www.w3.org/2000/svg" xmlns:xlink="http://www.w3.org/1999/xlink" x="0px" y="0px"
	 viewBox="0 0 18 18" style="enable-background:new 0 0 18 18;" xml:space="preserve">
<style type="text/css">
	.st0{fill:#666666;}
</style>
<path class="st0" d="M16.6,7.5c-1.9-3-4.7-3-6.6-2V0H9v2.5C5-2.3,1.5,1.3,1.5,1.3S3.6,5.6,9,2.5v3c-1.9-1-5.6-1-7.5,2
	C-0.4,10.5,4.3,18,6.2,18c1.9,0,1.9-1,2.8-1s1,1,2.9,1C13.8,18,18.5,10.5,16.6,7.5z M5,11c-1.1,0-2-0.9-2-2s0.9-2,2-2s2,0.9,2,2
	S6.1,11,5,11z"/>
</svg>
