<svg xmlns="http://www.w3.org/2000/svg" version="1.1" xmlns:xlink="http://www.w3.org/1999/xlink" xmlns:svgjs="http://svgjs.com/svgjs" width="1440" height="560" preserveAspectRatio="none" viewBox="0 0 1440 560"><g mask="url(&quot;#SvgjsMask1008&quot;)" fill="none"><rect width="1440" height="560" x="0" y="0" fill="rgba(255, 255, 255, 1)"></rect><path d="M-96.95 405.15L-96.95 405.15" stroke="rgba(0, 104, 56, 1)" stroke-width="1.5"></path><path d="M-96.95 405.15L-69.59 498.83" stroke="rgba(0, 104, 56, 1)" stroke-width="1.5"></path><path d="M-96.95 405.15L77.79 356.93" stroke="rgba(0, 104, 56, 1)" stroke-width="1.5"></path><path d="M-96.95 405.15L72.93 499.43" stroke="rgba(0, 104, 56, 1)" stroke-width="1.5"></path><path d="M-96.95 405.15L-59.33 667.67" stroke="rgba(0, 104, 56, 1)" stroke-width="1.5"></path><path d="M-69.59 498.83L-69.59 498.83" stroke="rgba(0, 104, 56, 1)" stroke-width="1.5"></path><path d="M-69.59 498.83L72.93 499.43" stroke="rgba(0, 104, 56, 1)" stroke-width="1.5"></path><path d="M-59.33 667.67L-59.33 667.67" stroke="rgba(0, 104, 56, 1)" stroke-width="1.5"></path><path d="M-59.33 667.67L42.87 685.95" stroke="rgba(0, 104, 56, 1)" stroke-width="1.5"></path><path d="M-59.33 667.67L-69.59 498.83" stroke="rgba(0, 104, 56, 1)" stroke-width="1.5"></path><path d="M-59.33 667.67L72.93 499.43" stroke="rgba(0, 104, 56, 1)" stroke-width="1.5"></path><path d="M77.79 356.93L77.79 356.93" stroke="rgba(0, 104, 56, 1)" stroke-width="1.5"></path><path d="M77.79 356.93L72.93 499.43" stroke="rgba(0, 104, 56, 1)" stroke-width="1.5"></path><path d="M77.79 356.93L222.42 403.65" stroke="rgba(0, 104, 56, 1)" stroke-width="1.5"></path><path d="M72.93 499.43L72.93 499.43" stroke="rgba(0, 104, 56, 1)" stroke-width="1.5"></path><path d="M72.93 499.43L234.91 520.47" stroke="rgba(0, 104, 56, 1)" stroke-width="1.5"></path><path d="M42.87 685.95L42.87 685.95" stroke="rgba(0, 104, 56, 1)" stroke-width="1.5"></path><path d="M42.87 685.95L72.93 499.43" stroke="rgba(0, 104, 56, 1)" stroke-width="1.5"></path><path d="M42.87 685.95L258 679.59" stroke="rgba(0, 104, 56, 1)" stroke-width="1.5"></path><path d="M42.87 685.95L-69.59 498.83" stroke="rgba(0, 104, 56, 1)" stroke-width="1.5"></path><path d="M42.87 685.95L234.91 520.47" stroke="rgba(0, 104, 56, 1)" stroke-width="1.5"></path><path d="M42.87 685.95L353.34 674.42" stroke="rgba(0, 104, 56, 1)" stroke-width="1.5"></path><path d="M222.42 403.65L222.42 403.65" stroke="rgba(0, 104, 56, 1)" stroke-width="1.5"></path><path d="M222.42 403.65L234.91 520.47" stroke="rgba(0, 104, 56, 1)" stroke-width="1.5"></path><path d="M222.42 403.65L340.04 351.62" stroke="rgba(0, 104, 56, 1)" stroke-width="1.5"></path><path d="M222.42 403.65L72.93 499.43" stroke="rgba(0, 104, 56, 1)" stroke-width="1.5"></path><path d="M222.42 403.65L385.98 523.2" stroke="rgba(0, 104, 56, 1)" stroke-width="1.5"></path><path d="M234.91 520.47L234.91 520.47" stroke="rgba(0, 104, 56, 1)" stroke-width="1.5"></path><path d="M234.91 520.47L385.98 523.2" stroke="rgba(0, 104, 56, 1)" stroke-width="1.5"></path><path d="M258 679.59L258 679.59" stroke="rgba(0, 104, 56, 1)" stroke-width="1.5"></path><path d="M258 679.59L353.34 674.42" stroke="rgba(0, 104, 56, 1)" stroke-width="1.5"></path><path d="M258 679.59L234.91 520.47" stroke="rgba(0, 104, 56, 1)" stroke-width="1.5"></path><path d="M258 679.59L385.98 523.2" stroke="rgba(0, 104, 56, 1)" stroke-width="1.5"></path><path d="M340.04 351.62L340.04 351.62" stroke="rgba(0, 104, 56, 1)" stroke-width="1.5"></path><path d="M340.04 351.62L490.48 382.61" stroke="rgba(0, 104, 56, 1)" stroke-width="1.5"></path><path d="M340.04 351.62L385.98 523.2" stroke="rgba(0, 104, 56, 1)" stroke-width="1.5"></path><path d="M340.04 351.62L234.91 520.47" stroke="rgba(0, 104, 56, 1)" stroke-width="1.5"></path><path d="M340.04 351.62L77.79 356.93" stroke="rgba(0, 104, 56, 1)" stroke-width="1.5"></path><path d="M340.04 351.62L530.47 551.05" stroke="rgba(0, 104, 56, 1)" stroke-width="1.5"></path><path d="M385.98 523.2L385.98 523.2" stroke="rgba(0, 104, 56, 1)" stroke-width="1.5"></path><path d="M385.98 523.2L530.47 551.05" stroke="rgba(0, 104, 56, 1)" stroke-width="1.5"></path><path d="M385.98 523.2L353.34 674.42" stroke="rgba(0, 104, 56, 1)" stroke-width="1.5"></path><path d="M385.98 523.2L490.48 382.61" stroke="rgba(0, 104, 56, 1)" stroke-width="1.5"></path><path d="M353.34 674.42L353.34 674.42" stroke="rgba(0, 104, 56, 1)" stroke-width="1.5"></path><path d="M490.48 382.61L490.48 382.61" stroke="rgba(0, 104, 56, 1)" stroke-width="1.5"></path><path d="M490.48 382.61L530.47 551.05" stroke="rgba(0, 104, 56, 1)" stroke-width="1.5"></path><path d="M490.48 382.61L710.41 398.54" stroke="rgba(0, 104, 56, 1)" stroke-width="1.5"></path><path d="M530.47 551.05L530.47 551.05" stroke="rgba(0, 104, 56, 1)" stroke-width="1.5"></path><path d="M530.47 551.05L654.7 561.02" stroke="rgba(0, 104, 56, 1)" stroke-width="1.5"></path><path d="M530.47 551.05L535.76 686.97" stroke="rgba(0, 104, 56, 1)" stroke-width="1.5"></path><path d="M530.47 551.05L647.86 648.11" stroke="rgba(0, 104, 56, 1)" stroke-width="1.5"></path><path d="M535.76 686.97L535.76 686.97" stroke="rgba(0, 104, 56, 1)" stroke-width="1.5"></path><path d="M535.76 686.97L647.86 648.11" stroke="rgba(0, 104, 56, 1)" stroke-width="1.5"></path><path d="M535.76 686.97L654.7 561.02" stroke="rgba(0, 104, 56, 1)" stroke-width="1.5"></path><path d="M535.76 686.97L353.34 674.42" stroke="rgba(0, 104, 56, 1)" stroke-width="1.5"></path><path d="M535.76 686.97L385.98 523.2" stroke="rgba(0, 104, 56, 1)" stroke-width="1.5"></path><path d="M686.86 227.43L686.86 227.43" stroke="rgba(0, 104, 56, 1)" stroke-width="1.5"></path><path d="M686.86 227.43L844.63 206.63" stroke="rgba(0, 104, 56, 1)" stroke-width="1.5"></path><path d="M686.86 227.43L710.41 398.54" stroke="rgba(0, 104, 56, 1)" stroke-width="1.5"></path><path d="M686.86 227.43L832.74 392.15" stroke="rgba(0, 104, 56, 1)" stroke-width="1.5"></path><path d="M686.86 227.43L490.48 382.61" stroke="rgba(0, 104, 56, 1)" stroke-width="1.5"></path><path d="M710.41 398.54L710.41 398.54" stroke="rgba(0, 104, 56, 1)" stroke-width="1.5"></path><path d="M710.41 398.54L832.74 392.15" stroke="rgba(0, 104, 56, 1)" stroke-width="1.5"></path><path d="M710.41 398.54L817.2 528.5" stroke="rgba(0, 104, 56, 1)" stroke-width="1.5"></path><path d="M710.41 398.54L654.7 561.02" stroke="rgba(0, 104, 56, 1)" stroke-width="1.5"></path><path d="M654.7 561.02L654.7 561.02" stroke="rgba(0, 104, 56, 1)" stroke-width="1.5"></path><path d="M654.7 561.02L647.86 648.11" stroke="rgba(0, 104, 56, 1)" stroke-width="1.5"></path><path d="M654.7 561.02L817.2 528.5" stroke="rgba(0, 104, 56, 1)" stroke-width="1.5"></path><path d="M647.86 648.11L647.86 648.11" stroke="rgba(0, 104, 56, 1)" stroke-width="1.5"></path><path d="M647.86 648.11L804.41 669.23" stroke="rgba(0, 104, 56, 1)" stroke-width="1.5"></path><path d="M844.63 206.63L844.63 206.63" stroke="rgba(0, 104, 56, 1)" stroke-width="1.5"></path><path d="M844.63 206.63L944.77 194.13" stroke="rgba(0, 104, 56, 1)" stroke-width="1.5"></path><path d="M844.63 206.63L938.34 77.42" stroke="rgba(0, 104, 56, 1)" stroke-width="1.5"></path><path d="M844.63 206.63L832.74 392.15" stroke="rgba(0, 104, 56, 1)" stroke-width="1.5"></path><path d="M844.63 206.63L943.48 392.83" stroke="rgba(0, 104, 56, 1)" stroke-width="1.5"></path><path d="M832.74 392.15L832.74 392.15" stroke="rgba(0, 104, 56, 1)" stroke-width="1.5"></path><path d="M832.74 392.15L943.48 392.83" stroke="rgba(0, 104, 56, 1)" stroke-width="1.5"></path><path d="M832.74 392.15L817.2 528.5" stroke="rgba(0, 104, 56, 1)" stroke-width="1.5"></path><path d="M832.74 392.15L953.78 562.01" stroke="rgba(0, 104, 56, 1)" stroke-width="1.5"></path><path d="M817.2 528.5L817.2 528.5" stroke="rgba(0, 104, 56, 1)" stroke-width="1.5"></path><path d="M817.2 528.5L953.78 562.01" stroke="rgba(0, 104, 56, 1)" stroke-width="1.5"></path><path d="M804.41 669.23L804.41 669.23" stroke="rgba(0, 104, 56, 1)" stroke-width="1.5"></path><path d="M804.41 669.23L817.2 528.5" stroke="rgba(0, 104, 56, 1)" stroke-width="1.5"></path><path d="M938.34 77.42L938.34 77.42" stroke="rgba(0, 104, 56, 1)" stroke-width="1.5"></path><path d="M938.34 77.42L944.77 194.13" stroke="rgba(0, 104, 56, 1)" stroke-width="1.5"></path><path d="M938.34 77.42L1106.32 104.79" stroke="rgba(0, 104, 56, 1)" stroke-width="1.5"></path><path d="M944.77 194.13L944.77 194.13" stroke="rgba(0, 104, 56, 1)" stroke-width="1.5"></path><path d="M944.77 194.13L1106.32 104.79" stroke="rgba(0, 104, 56, 1)" stroke-width="1.5"></path><path d="M944.77 194.13L1132.93 232.78" stroke="rgba(0, 104, 56, 1)" stroke-width="1.5"></path><path d="M944.77 194.13L943.48 392.83" stroke="rgba(0, 104, 56, 1)" stroke-width="1.5"></path><path d="M943.48 392.83L943.48 392.83" stroke="rgba(0, 104, 56, 1)" stroke-width="1.5"></path><path d="M943.48 392.83L1101.86 338.84" stroke="rgba(0, 104, 56, 1)" stroke-width="1.5"></path><path d="M943.48 392.83L953.78 562.01" stroke="rgba(0, 104, 56, 1)" stroke-width="1.5"></path><path d="M953.78 562.01L953.78 562.01" stroke="rgba(0, 104, 56, 1)" stroke-width="1.5"></path><path d="M953.78 562.01L967.41 699.33" stroke="rgba(0, 104, 56, 1)" stroke-width="1.5"></path><path d="M953.78 562.01L1104.34 557.63" stroke="rgba(0, 104, 56, 1)" stroke-width="1.5"></path><path d="M953.78 562.01L804.41 669.23" stroke="rgba(0, 104, 56, 1)" stroke-width="1.5"></path><path d="M967.41 699.33L967.41 699.33" stroke="rgba(0, 104, 56, 1)" stroke-width="1.5"></path><path d="M967.41 699.33L804.41 669.23" stroke="rgba(0, 104, 56, 1)" stroke-width="1.5"></path><path d="M1140.17 -85.17L1140.17 -85.17" stroke="rgba(0, 104, 56, 1)" stroke-width="1.5"></path><path d="M1140.17 -85.17L1254.15 -53.54" stroke="rgba(0, 104, 56, 1)" stroke-width="1.5"></path><path d="M1140.17 -85.17L1106.32 104.79" stroke="rgba(0, 104, 56, 1)" stroke-width="1.5"></path><path d="M1140.17 -85.17L1304.63 40.22" stroke="rgba(0, 104, 56, 1)" stroke-width="1.5"></path><path d="M1140.17 -85.17L938.34 77.42" stroke="rgba(0, 104, 56, 1)" stroke-width="1.5"></path><path d="M1140.17 -85.17L1404.81 -102.45" stroke="rgba(0, 104, 56, 1)" stroke-width="1.5"></path><path d="M1106.32 104.79L1106.32 104.79" stroke="rgba(0, 104, 56, 1)" stroke-width="1.5"></path><path d="M1106.32 104.79L1132.93 232.78" stroke="rgba(0, 104, 56, 1)" stroke-width="1.5"></path><path d="M1132.93 232.78L1132.93 232.78" stroke="rgba(0, 104, 56, 1)" stroke-width="1.5"></path><path d="M1132.93 232.78L1101.86 338.84" stroke="rgba(0, 104, 56, 1)" stroke-width="1.5"></path><path d="M1101.86 338.84L1101.86 338.84" stroke="rgba(0, 104, 56, 1)" stroke-width="1.5"></path><path d="M1101.86 338.84L1264.06 349.49" stroke="rgba(0, 104, 56, 1)" stroke-width="1.5"></path><path d="M1104.34 557.63L1104.34 557.63" stroke="rgba(0, 104, 56, 1)" stroke-width="1.5"></path><path d="M1104.34 557.63L1265.61 502.76" stroke="rgba(0, 104, 56, 1)" stroke-width="1.5"></path><path d="M1254.15 -53.54L1254.15 -53.54" stroke="rgba(0, 104, 56, 1)" stroke-width="1.5"></path><path d="M1254.15 -53.54L1304.63 40.22" stroke="rgba(0, 104, 56, 1)" stroke-width="1.5"></path><path d="M1254.15 -53.54L1404.81 -102.45" stroke="rgba(0, 104, 56, 1)" stroke-width="1.5"></path><path d="M1254.15 -53.54L1106.32 104.79" stroke="rgba(0, 104, 56, 1)" stroke-width="1.5"></path><path d="M1254.15 -53.54L1422.93 95.51" stroke="rgba(0, 104, 56, 1)" stroke-width="1.5"></path><path d="M1304.63 40.22L1304.63 40.22" stroke="rgba(0, 104, 56, 1)" stroke-width="1.5"></path><path d="M1304.63 40.22L1422.93 95.51" stroke="rgba(0, 104, 56, 1)" stroke-width="1.5"></path><path d="M1302.82 248.78L1302.82 248.78" stroke="rgba(0, 104, 56, 1)" stroke-width="1.5"></path><path d="M1302.82 248.78L1401.97 242.77" stroke="rgba(0, 104, 56, 1)" stroke-width="1.5"></path><path d="M1302.82 248.78L1264.06 349.49" stroke="rgba(0, 104, 56, 1)" stroke-width="1.5"></path><path d="M1302.82 248.78L1420.72 347.11" stroke="rgba(0, 104, 56, 1)" stroke-width="1.5"></path><path d="M1302.82 248.78L1132.93 232.78" stroke="rgba(0, 104, 56, 1)" stroke-width="1.5"></path><path d="M1302.82 248.78L1422.93 95.51" stroke="rgba(0, 104, 56, 1)" stroke-width="1.5"></path><path d="M1302.82 248.78L1304.63 40.22" stroke="rgba(0, 104, 56, 1)" stroke-width="1.5"></path><path d="M1264.06 349.49L1264.06 349.49" stroke="rgba(0, 104, 56, 1)" stroke-width="1.5"></path><path d="M1264.06 349.49L1265.61 502.76" stroke="rgba(0, 104, 56, 1)" stroke-width="1.5"></path><path d="M1264.06 349.49L1420.72 347.11" stroke="rgba(0, 104, 56, 1)" stroke-width="1.5"></path><path d="M1265.61 502.76L1265.61 502.76" stroke="rgba(0, 104, 56, 1)" stroke-width="1.5"></path><path d="M1265.61 502.76L1444.66 520.15" stroke="rgba(0, 104, 56, 1)" stroke-width="1.5"></path><path d="M1265.61 502.76L1304 679.07" stroke="rgba(0, 104, 56, 1)" stroke-width="1.5"></path><path d="M1265.61 502.76L1420.72 347.11" stroke="rgba(0, 104, 56, 1)" stroke-width="1.5"></path><path d="M1265.61 502.76L1402.08 685.84" stroke="rgba(0, 104, 56, 1)" stroke-width="1.5"></path><path d="M1304 679.07L1304 679.07" stroke="rgba(0, 104, 56, 1)" stroke-width="1.5"></path><path d="M1304 679.07L1402.08 685.84" stroke="rgba(0, 104, 56, 1)" stroke-width="1.5"></path><path d="M1304 679.07L1444.66 520.15" stroke="rgba(0, 104, 56, 1)" stroke-width="1.5"></path><path d="M1304 679.07L1104.34 557.63" stroke="rgba(0, 104, 56, 1)" stroke-width="1.5"></path><path d="M1304 679.07L1611.57 670.26" stroke="rgba(0, 104, 56, 1)" stroke-width="1.5"></path><path d="M1304 679.07L1264.06 349.49" stroke="rgba(0, 104, 56, 1)" stroke-width="1.5"></path><path d="M1404.81 -102.45L1404.81 -102.45" stroke="rgba(0, 104, 56, 1)" stroke-width="1.5"></path><path d="M1404.81 -102.45L1304.63 40.22" stroke="rgba(0, 104, 56, 1)" stroke-width="1.5"></path><path d="M1404.81 -102.45L1422.93 95.51" stroke="rgba(0, 104, 56, 1)" stroke-width="1.5"></path><path d="M1404.81 -102.45L1601.48 -67.53" stroke="rgba(0, 104, 56, 1)" stroke-width="1.5"></path><path d="M1422.93 95.51L1422.93 95.51" stroke="rgba(0, 104, 56, 1)" stroke-width="1.5"></path><path d="M1422.93 95.51L1401.97 242.77" stroke="rgba(0, 104, 56, 1)" stroke-width="1.5"></path><path d="M1401.97 242.77L1401.97 242.77" stroke="rgba(0, 104, 56, 1)" stroke-width="1.5"></path><path d="M1401.97 242.77L1420.72 347.11" stroke="rgba(0, 104, 56, 1)" stroke-width="1.5"></path><path d="M1420.72 347.11L1420.72 347.11" stroke="rgba(0, 104, 56, 1)" stroke-width="1.5"></path><path d="M1444.66 520.15L1444.66 520.15" stroke="rgba(0, 104, 56, 1)" stroke-width="1.5"></path><path d="M1444.66 520.15L1402.08 685.84" stroke="rgba(0, 104, 56, 1)" stroke-width="1.5"></path><path d="M1444.66 520.15L1420.72 347.11" stroke="rgba(0, 104, 56, 1)" stroke-width="1.5"></path><path d="M1444.66 520.15L1580.33 391.39" stroke="rgba(0, 104, 56, 1)" stroke-width="1.5"></path><path d="M1402.08 685.84L1402.08 685.84" stroke="rgba(0, 104, 56, 1)" stroke-width="1.5"></path><path d="M1402.08 685.84L1611.57 670.26" stroke="rgba(0, 104, 56, 1)" stroke-width="1.5"></path><path d="M1402.08 685.84L1104.34 557.63" stroke="rgba(0, 104, 56, 1)" stroke-width="1.5"></path><path d="M1601.48 -67.53L1601.48 -67.53" stroke="rgba(0, 104, 56, 1)" stroke-width="1.5"></path><path d="M1601.48 -67.53L1606.99 89.6" stroke="rgba(0, 104, 56, 1)" stroke-width="1.5"></path><path d="M1601.48 -67.53L1422.93 95.51" stroke="rgba(0, 104, 56, 1)" stroke-width="1.5"></path><path d="M1601.48 -67.53L1304.63 40.22" stroke="rgba(0, 104, 56, 1)" stroke-width="1.5"></path><path d="M1601.48 -67.53L1594.18 248.54" stroke="rgba(0, 104, 56, 1)" stroke-width="1.5"></path><path d="M1601.48 -67.53L1254.15 -53.54" stroke="rgba(0, 104, 56, 1)" stroke-width="1.5"></path><path d="M1606.99 89.6L1606.99 89.6" stroke="rgba(0, 104, 56, 1)" stroke-width="1.5"></path><path d="M1606.99 89.6L1594.18 248.54" stroke="rgba(0, 104, 56, 1)" stroke-width="1.5"></path><path d="M1606.99 89.6L1422.93 95.51" stroke="rgba(0, 104, 56, 1)" stroke-width="1.5"></path><path d="M1606.99 89.6L1401.97 242.77" stroke="rgba(0, 104, 56, 1)" stroke-width="1.5"></path><path d="M1606.99 89.6L1404.81 -102.45" stroke="rgba(0, 104, 56, 1)" stroke-width="1.5"></path><path d="M1594.18 248.54L1594.18 248.54" stroke="rgba(0, 104, 56, 1)" stroke-width="1.5"></path><path d="M1594.18 248.54L1580.33 391.39" stroke="rgba(0, 104, 56, 1)" stroke-width="1.5"></path><path d="M1594.18 248.54L1401.97 242.77" stroke="rgba(0, 104, 56, 1)" stroke-width="1.5"></path><path d="M1594.18 248.54L1420.72 347.11" stroke="rgba(0, 104, 56, 1)" stroke-width="1.5"></path><path d="M1594.18 248.54L1422.93 95.51" stroke="rgba(0, 104, 56, 1)" stroke-width="1.5"></path><path d="M1580.33 391.39L1580.33 391.39" stroke="rgba(0, 104, 56, 1)" stroke-width="1.5"></path><path d="M1580.33 391.39L1420.72 347.11" stroke="rgba(0, 104, 56, 1)" stroke-width="1.5"></path><path d="M1611.57 670.26L1611.57 670.26" stroke="rgba(0, 104, 56, 1)" stroke-width="1.5"></path><path d="M1611.57 670.26L1444.66 520.15" stroke="rgba(0, 104, 56, 1)" stroke-width="1.5"></path><circle r="5" cx="-96.95" cy="405.15" fill="rgba(0, 104, 56, 1)"></circle><circle r="5" cx="-69.59" cy="498.83" fill="rgba(0, 104, 56, 1)"></circle><circle r="5" cx="-59.33" cy="667.67" fill="rgba(0, 104, 56, 1)"></circle><circle r="5" cx="77.79" cy="356.93" fill="rgba(0, 104, 56, 1)"></circle><circle r="5" cx="72.93" cy="499.43" fill="rgba(0, 104, 56, 1)"></circle><circle r="5" cx="42.87" cy="685.95" fill="rgba(0, 104, 56, 1)"></circle><circle r="5" cx="222.42" cy="403.65" fill="rgba(0, 104, 56, 1)"></circle><circle r="5" cx="234.91" cy="520.47" fill="rgba(0, 104, 56, 1)"></circle><circle r="5" cx="258" cy="679.59" fill="rgba(0, 104, 56, 1)"></circle><circle r="5" cx="340.04" cy="351.62" fill="rgba(0, 104, 56, 1)"></circle><circle r="5" cx="385.98" cy="523.2" fill="rgba(0, 104, 56, 1)"></circle><circle r="5" cx="353.34" cy="674.42" fill="rgba(0, 104, 56, 1)"></circle><circle r="5" cx="490.48" cy="382.61" fill="rgba(0, 104, 56, 1)"></circle><circle r="5" cx="530.47" cy="551.05" fill="rgba(0, 104, 56, 1)"></circle><circle r="5" cx="535.76" cy="686.97" fill="rgba(0, 104, 56, 1)"></circle><circle r="5" cx="686.86" cy="227.43" fill="rgba(0, 104, 56, 1)"></circle><circle r="5" cx="710.41" cy="398.54" fill="rgba(0, 104, 56, 1)"></circle><circle r="5" cx="654.7" cy="561.02" fill="rgba(0, 104, 56, 1)"></circle><circle r="5" cx="647.86" cy="648.11" fill="rgba(0, 104, 56, 1)"></circle><circle r="5" cx="844.63" cy="206.63" fill="rgba(0, 104, 56, 1)"></circle><circle r="5" cx="832.74" cy="392.15" fill="rgba(0, 104, 56, 1)"></circle><circle r="5" cx="817.2" cy="528.5" fill="rgba(0, 104, 56, 1)"></circle><circle r="5" cx="804.41" cy="669.23" fill="rgba(0, 104, 56, 1)"></circle><circle r="5" cx="938.34" cy="77.42" fill="rgba(0, 104, 56, 1)"></circle><circle r="5" cx="944.77" cy="194.13" fill="rgba(0, 104, 56, 1)"></circle><circle r="5" cx="943.48" cy="392.83" fill="rgba(0, 104, 56, 1)"></circle><circle r="5" cx="953.78" cy="562.01" fill="rgba(0, 104, 56, 1)"></circle><circle r="5" cx="967.41" cy="699.33" fill="rgba(0, 104, 56, 1)"></circle><circle r="5" cx="1140.17" cy="-85.17" fill="rgba(0, 104, 56, 1)"></circle><circle r="5" cx="1106.32" cy="104.79" fill="rgba(0, 104, 56, 1)"></circle><circle r="5" cx="1132.93" cy="232.78" fill="rgba(0, 104, 56, 1)"></circle><circle r="5" cx="1101.86" cy="338.84" fill="rgba(0, 104, 56, 1)"></circle><circle r="5" cx="1104.34" cy="557.63" fill="rgba(0, 104, 56, 1)"></circle><circle r="5" cx="1254.15" cy="-53.54" fill="rgba(0, 104, 56, 1)"></circle><circle r="5" cx="1304.63" cy="40.22" fill="rgba(0, 104, 56, 1)"></circle><circle r="5" cx="1302.82" cy="248.78" fill="rgba(0, 104, 56, 1)"></circle><circle r="5" cx="1264.06" cy="349.49" fill="rgba(0, 104, 56, 1)"></circle><circle r="5" cx="1265.61" cy="502.76" fill="rgba(0, 104, 56, 1)"></circle><circle r="5" cx="1304" cy="679.07" fill="rgba(0, 104, 56, 1)"></circle><circle r="5" cx="1404.81" cy="-102.45" fill="rgba(0, 104, 56, 1)"></circle><circle r="5" cx="1422.93" cy="95.51" fill="rgba(0, 104, 56, 1)"></circle><circle r="5" cx="1401.97" cy="242.77" fill="rgba(0, 104, 56, 1)"></circle><circle r="5" cx="1420.72" cy="347.11" fill="rgba(0, 104, 56, 1)"></circle><circle r="5" cx="1444.66" cy="520.15" fill="rgba(0, 104, 56, 1)"></circle><circle r="5" cx="1402.08" cy="685.84" fill="rgba(0, 104, 56, 1)"></circle><circle r="5" cx="1601.48" cy="-67.53" fill="rgba(0, 104, 56, 1)"></circle><circle r="5" cx="1606.99" cy="89.6" fill="rgba(0, 104, 56, 1)"></circle><circle r="5" cx="1594.18" cy="248.54" fill="rgba(0, 104, 56, 1)"></circle><circle r="5" cx="1580.33" cy="391.39" fill="rgba(0, 104, 56, 1)"></circle><circle r="5" cx="1611.57" cy="670.26" fill="rgba(0, 104, 56, 1)"></circle><path d="M44.21 710.07L44.21 710.07" stroke="hsl(152.29999999999995, 100%, 37%)" stroke-width="1.5"></path><path d="M44.21 710.07L-82.5 690.38" stroke="hsl(152.29999999999995, 100%, 37%)" stroke-width="1.5"></path><path d="M44.21 710.07L202.33 710.71" stroke="hsl(152.29999999999995, 100%, 37%)" stroke-width="1.5"></path><path d="M44.21 710.07L76.57 503.69" stroke="hsl(152.29999999999995, 100%, 37%)" stroke-width="1.5"></path><path d="M44.21 710.07L209.86 546.17" stroke="hsl(152.29999999999995, 100%, 37%)" stroke-width="1.5"></path><path d="M44.21 710.07L364.71 659.48" stroke="hsl(152.29999999999995, 100%, 37%)" stroke-width="1.5"></path><path d="M44.21 710.07L400.7 523.57" stroke="hsl(152.29999999999995, 100%, 37%)" stroke-width="1.5"></path><path d="M529.12 511.12L529.12 511.12" stroke="hsl(152.29999999999995, 100%, 37%)" stroke-width="1.5"></path><path d="M529.12 511.12L400.7 523.57" stroke="hsl(152.29999999999995, 100%, 37%)" stroke-width="1.5"></path><path d="M529.12 511.12L637.61 375.15" stroke="hsl(152.29999999999995, 100%, 37%)" stroke-width="1.5"></path><path d="M820.11 361.11L820.11 361.11" stroke="hsl(152.29999999999995, 100%, 37%)" stroke-width="1.5"></path><path d="M820.11 361.11L637.61 375.15" stroke="hsl(152.29999999999995, 100%, 37%)" stroke-width="1.5"></path><path d="M820.11 361.11L1005.62 384.65" stroke="hsl(152.29999999999995, 100%, 37%)" stroke-width="1.5"></path><path d="M820.11 361.11L823.4 549.56" stroke="hsl(152.29999999999995, 100%, 37%)" stroke-width="1.5"></path><path d="M820.11 361.11L1007.89 251.17" stroke="hsl(152.29999999999995, 100%, 37%)" stroke-width="1.5"></path><path d="M820.11 361.11L702.04 555.16" stroke="hsl(152.29999999999995, 100%, 37%)" stroke-width="1.5"></path><path d="M820.11 361.11L1088.93 385.53" stroke="hsl(152.29999999999995, 100%, 37%)" stroke-width="1.5"></path><path d="M830.02 678.31L830.02 678.31" stroke="hsl(152.29999999999995, 100%, 37%)" stroke-width="1.5"></path><path d="M830.02 678.31L942.96 693.86" stroke="hsl(152.29999999999995, 100%, 37%)" stroke-width="1.5"></path><path d="M830.02 678.31L823.4 549.56" stroke="hsl(152.29999999999995, 100%, 37%)" stroke-width="1.5"></path><path d="M830.02 678.31L658.82 676" stroke="hsl(152.29999999999995, 100%, 37%)" stroke-width="1.5"></path><path d="M830.02 678.31L702.04 555.16" stroke="hsl(152.29999999999995, 100%, 37%)" stroke-width="1.5"></path><path d="M830.02 678.31L517.23 704.79" stroke="hsl(152.29999999999995, 100%, 37%)" stroke-width="1.5"></path><path d="M1157.19 497.29L1157.19 497.29" stroke="hsl(152.29999999999995, 100%, 37%)" stroke-width="1.5"></path><path d="M1157.19 497.29L1088.93 385.53" stroke="hsl(152.29999999999995, 100%, 37%)" stroke-width="1.5"></path><path d="M1248.62 -43.27L1248.62 -43.27" stroke="hsl(152.29999999999995, 100%, 37%)" stroke-width="1.5"></path><path d="M1248.62 -43.27L1305.02 93.04" stroke="hsl(152.29999999999995, 100%, 37%)" stroke-width="1.5"></path><path d="M1248.62 -43.27L1439.63 -39.38" stroke="hsl(152.29999999999995, 100%, 37%)" stroke-width="1.5"></path><path d="M1248.62 -43.27L1403.61 89.46" stroke="hsl(152.29999999999995, 100%, 37%)" stroke-width="1.5"></path><path d="M1248.62 -43.27L1288.47 191.23" stroke="hsl(152.29999999999995, 100%, 37%)" stroke-width="1.5"></path><path d="M1288.47 191.23L1288.47 191.23" stroke="hsl(152.29999999999995, 100%, 37%)" stroke-width="1.5"></path><path d="M1288.47 191.23L1305.02 93.04" stroke="hsl(152.29999999999995, 100%, 37%)" stroke-width="1.5"></path><path d="M1288.47 191.23L1289.64 342.31" stroke="hsl(152.29999999999995, 100%, 37%)" stroke-width="1.5"></path><path d="M1288.47 191.23L1403.61 89.46" stroke="hsl(152.29999999999995, 100%, 37%)" stroke-width="1.5"></path><path d="M1391.82 365.83L1391.82 365.83" stroke="hsl(152.29999999999995, 100%, 37%)" stroke-width="1.5"></path><path d="M1391.82 365.83L1289.64 342.31" stroke="hsl(152.29999999999995, 100%, 37%)" stroke-width="1.5"></path><path d="M1391.82 365.83L1452.24 219.39" stroke="hsl(152.29999999999995, 100%, 37%)" stroke-width="1.5"></path><path d="M1391.82 365.83L1557.76 398.22" stroke="hsl(152.29999999999995, 100%, 37%)" stroke-width="1.5"></path><path d="M1391.82 365.83L1402.22 555" stroke="hsl(152.29999999999995, 100%, 37%)" stroke-width="1.5"></path><path d="M1391.82 365.83L1288.47 191.23" stroke="hsl(152.29999999999995, 100%, 37%)" stroke-width="1.5"></path><path d="M1391.82 365.83L1283.89 558.06" stroke="hsl(152.29999999999995, 100%, 37%)" stroke-width="1.5"></path><path d="M-82.5 690.38L-82.5 690.38" stroke="hsl(152.29999999999995, 100%, 37%)" stroke-width="1.5"></path><path d="M-82.5 690.38L76.57 503.69" stroke="hsl(152.29999999999995, 100%, 37%)" stroke-width="1.5"></path><path d="M-82.5 690.38L202.33 710.71" stroke="hsl(152.29999999999995, 100%, 37%)" stroke-width="1.5"></path><path d="M76.57 503.69L76.57 503.69" stroke="hsl(152.29999999999995, 100%, 37%)" stroke-width="1.5"></path><path d="M76.57 503.69L209.86 546.17" stroke="hsl(152.29999999999995, 100%, 37%)" stroke-width="1.5"></path><path d="M76.57 503.69L202.33 710.71" stroke="hsl(152.29999999999995, 100%, 37%)" stroke-width="1.5"></path><path d="M209.86 546.17L209.86 546.17" stroke="hsl(152.29999999999995, 100%, 37%)" stroke-width="1.5"></path><path d="M209.86 546.17L202.33 710.71" stroke="hsl(152.29999999999995, 100%, 37%)" stroke-width="1.5"></path><path d="M209.86 546.17L364.71 659.48" stroke="hsl(152.29999999999995, 100%, 37%)" stroke-width="1.5"></path><path d="M202.33 710.71L202.33 710.71" stroke="hsl(152.29999999999995, 100%, 37%)" stroke-width="1.5"></path><path d="M400.7 523.57L400.7 523.57" stroke="hsl(152.29999999999995, 100%, 37%)" stroke-width="1.5"></path><path d="M400.7 523.57L364.71 659.48" stroke="hsl(152.29999999999995, 100%, 37%)" stroke-width="1.5"></path><path d="M400.7 523.57L209.86 546.17" stroke="hsl(152.29999999999995, 100%, 37%)" stroke-width="1.5"></path><path d="M400.7 523.57L517.23 704.79" stroke="hsl(152.29999999999995, 100%, 37%)" stroke-width="1.5"></path><path d="M400.7 523.57L202.33 710.71" stroke="hsl(152.29999999999995, 100%, 37%)" stroke-width="1.5"></path><path d="M364.71 659.48L364.71 659.48" stroke="hsl(152.29999999999995, 100%, 37%)" stroke-width="1.5"></path><path d="M364.71 659.48L517.23 704.79" stroke="hsl(152.29999999999995, 100%, 37%)" stroke-width="1.5"></path><path d="M364.71 659.48L202.33 710.71" stroke="hsl(152.29999999999995, 100%, 37%)" stroke-width="1.5"></path><path d="M364.71 659.48L529.12 511.12" stroke="hsl(152.29999999999995, 100%, 37%)" stroke-width="1.5"></path><path d="M517.23 704.79L517.23 704.79" stroke="hsl(152.29999999999995, 100%, 37%)" stroke-width="1.5"></path><path d="M517.23 704.79L658.82 676" stroke="hsl(152.29999999999995, 100%, 37%)" stroke-width="1.5"></path><path d="M637.61 375.15L637.61 375.15" stroke="hsl(152.29999999999995, 100%, 37%)" stroke-width="1.5"></path><path d="M637.61 375.15L702.04 555.16" stroke="hsl(152.29999999999995, 100%, 37%)" stroke-width="1.5"></path><path d="M637.61 375.15L823.4 549.56" stroke="hsl(152.29999999999995, 100%, 37%)" stroke-width="1.5"></path><path d="M637.61 375.15L400.7 523.57" stroke="hsl(152.29999999999995, 100%, 37%)" stroke-width="1.5"></path><path d="M702.04 555.16L702.04 555.16" stroke="hsl(152.29999999999995, 100%, 37%)" stroke-width="1.5"></path><path d="M702.04 555.16L823.4 549.56" stroke="hsl(152.29999999999995, 100%, 37%)" stroke-width="1.5"></path><path d="M702.04 555.16L658.82 676" stroke="hsl(152.29999999999995, 100%, 37%)" stroke-width="1.5"></path><path d="M702.04 555.16L529.12 511.12" stroke="hsl(152.29999999999995, 100%, 37%)" stroke-width="1.5"></path><path d="M658.82 676L658.82 676" stroke="hsl(152.29999999999995, 100%, 37%)" stroke-width="1.5"></path><path d="M823.4 549.56L823.4 549.56" stroke="hsl(152.29999999999995, 100%, 37%)" stroke-width="1.5"></path><path d="M823.4 549.56L942.96 693.86" stroke="hsl(152.29999999999995, 100%, 37%)" stroke-width="1.5"></path><path d="M823.4 549.56L658.82 676" stroke="hsl(152.29999999999995, 100%, 37%)" stroke-width="1.5"></path><path d="M823.4 549.56L1005.62 384.65" stroke="hsl(152.29999999999995, 100%, 37%)" stroke-width="1.5"></path><path d="M1007.89 251.17L1007.89 251.17" stroke="hsl(152.29999999999995, 100%, 37%)" stroke-width="1.5"></path><path d="M1007.89 251.17L1102.11 249.14" stroke="hsl(152.29999999999995, 100%, 37%)" stroke-width="1.5"></path><path d="M1007.89 251.17L1005.62 384.65" stroke="hsl(152.29999999999995, 100%, 37%)" stroke-width="1.5"></path><path d="M1007.89 251.17L1088.93 385.53" stroke="hsl(152.29999999999995, 100%, 37%)" stroke-width="1.5"></path><path d="M1007.89 251.17L1288.47 191.23" stroke="hsl(152.29999999999995, 100%, 37%)" stroke-width="1.5"></path><path d="M1007.89 251.17L1157.19 497.29" stroke="hsl(152.29999999999995, 100%, 37%)" stroke-width="1.5"></path><path d="M1005.62 384.65L1005.62 384.65" stroke="hsl(152.29999999999995, 100%, 37%)" stroke-width="1.5"></path><path d="M1005.62 384.65L1088.93 385.53" stroke="hsl(152.29999999999995, 100%, 37%)" stroke-width="1.5"></path><path d="M1005.62 384.65L1102.11 249.14" stroke="hsl(152.29999999999995, 100%, 37%)" stroke-width="1.5"></path><path d="M1005.62 384.65L1157.19 497.29" stroke="hsl(152.29999999999995, 100%, 37%)" stroke-width="1.5"></path><path d="M942.96 693.86L942.96 693.86" stroke="hsl(152.29999999999995, 100%, 37%)" stroke-width="1.5"></path><path d="M1102.11 249.14L1102.11 249.14" stroke="hsl(152.29999999999995, 100%, 37%)" stroke-width="1.5"></path><path d="M1102.11 249.14L1088.93 385.53" stroke="hsl(152.29999999999995, 100%, 37%)" stroke-width="1.5"></path><path d="M1088.93 385.53L1088.93 385.53" stroke="hsl(152.29999999999995, 100%, 37%)" stroke-width="1.5"></path><path d="M1305.02 93.04L1305.02 93.04" stroke="hsl(152.29999999999995, 100%, 37%)" stroke-width="1.5"></path><path d="M1305.02 93.04L1403.61 89.46" stroke="hsl(152.29999999999995, 100%, 37%)" stroke-width="1.5"></path><path d="M1305.02 93.04L1439.63 -39.38" stroke="hsl(152.29999999999995, 100%, 37%)" stroke-width="1.5"></path><path d="M1305.02 93.04L1452.24 219.39" stroke="hsl(152.29999999999995, 100%, 37%)" stroke-width="1.5"></path><path d="M1305.02 93.04L1289.64 342.31" stroke="hsl(152.29999999999995, 100%, 37%)" stroke-width="1.5"></path><path d="M1289.64 342.31L1289.64 342.31" stroke="hsl(152.29999999999995, 100%, 37%)" stroke-width="1.5"></path><path d="M1289.64 342.31L1452.24 219.39" stroke="hsl(152.29999999999995, 100%, 37%)" stroke-width="1.5"></path><path d="M1289.64 342.31L1157.19 497.29" stroke="hsl(152.29999999999995, 100%, 37%)" stroke-width="1.5"></path><path d="M1289.64 342.31L1088.93 385.53" stroke="hsl(152.29999999999995, 100%, 37%)" stroke-width="1.5"></path><path d="M1289.64 342.31L1102.11 249.14" stroke="hsl(152.29999999999995, 100%, 37%)" stroke-width="1.5"></path><path d="M1283.89 558.06L1283.89 558.06" stroke="hsl(152.29999999999995, 100%, 37%)" stroke-width="1.5"></path><path d="M1283.89 558.06L1402.22 555" stroke="hsl(152.29999999999995, 100%, 37%)" stroke-width="1.5"></path><path d="M1283.89 558.06L1157.19 497.29" stroke="hsl(152.29999999999995, 100%, 37%)" stroke-width="1.5"></path><path d="M1283.89 558.06L1262.23 698.78" stroke="hsl(152.29999999999995, 100%, 37%)" stroke-width="1.5"></path><path d="M1262.23 698.78L1262.23 698.78" stroke="hsl(152.29999999999995, 100%, 37%)" stroke-width="1.5"></path><path d="M1262.23 698.78L1398.27 681.26" stroke="hsl(152.29999999999995, 100%, 37%)" stroke-width="1.5"></path><path d="M1262.23 698.78L1402.22 555" stroke="hsl(152.29999999999995, 100%, 37%)" stroke-width="1.5"></path><path d="M1262.23 698.78L1157.19 497.29" stroke="hsl(152.29999999999995, 100%, 37%)" stroke-width="1.5"></path><path d="M1262.23 698.78L1555.98 668.51" stroke="hsl(152.29999999999995, 100%, 37%)" stroke-width="1.5"></path><path d="M1262.23 698.78L942.96 693.86" stroke="hsl(152.29999999999995, 100%, 37%)" stroke-width="1.5"></path><path d="M1439.63 -39.38L1439.63 -39.38" stroke="hsl(152.29999999999995, 100%, 37%)" stroke-width="1.5"></path><path d="M1439.63 -39.38L1568.9 -58.25" stroke="hsl(152.29999999999995, 100%, 37%)" stroke-width="1.5"></path><path d="M1439.63 -39.38L1403.61 89.46" stroke="hsl(152.29999999999995, 100%, 37%)" stroke-width="1.5"></path><path d="M1439.63 -39.38L1593.45 81.27" stroke="hsl(152.29999999999995, 100%, 37%)" stroke-width="1.5"></path><path d="M1403.61 89.46L1403.61 89.46" stroke="hsl(152.29999999999995, 100%, 37%)" stroke-width="1.5"></path><path d="M1403.61 89.46L1452.24 219.39" stroke="hsl(152.29999999999995, 100%, 37%)" stroke-width="1.5"></path><path d="M1403.61 89.46L1593.45 81.27" stroke="hsl(152.29999999999995, 100%, 37%)" stroke-width="1.5"></path><path d="M1452.24 219.39L1452.24 219.39" stroke="hsl(152.29999999999995, 100%, 37%)" stroke-width="1.5"></path><path d="M1452.24 219.39L1568.41 190.59" stroke="hsl(152.29999999999995, 100%, 37%)" stroke-width="1.5"></path><path d="M1402.22 555L1402.22 555" stroke="hsl(152.29999999999995, 100%, 37%)" stroke-width="1.5"></path><path d="M1402.22 555L1398.27 681.26" stroke="hsl(152.29999999999995, 100%, 37%)" stroke-width="1.5"></path><path d="M1402.22 555L1555.98 668.51" stroke="hsl(152.29999999999995, 100%, 37%)" stroke-width="1.5"></path><path d="M1402.22 555L1596.63 496.07" stroke="hsl(152.29999999999995, 100%, 37%)" stroke-width="1.5"></path><path d="M1398.27 681.26L1398.27 681.26" stroke="hsl(152.29999999999995, 100%, 37%)" stroke-width="1.5"></path><path d="M1398.27 681.26L1555.98 668.51" stroke="hsl(152.29999999999995, 100%, 37%)" stroke-width="1.5"></path><path d="M1398.27 681.26L1283.89 558.06" stroke="hsl(152.29999999999995, 100%, 37%)" stroke-width="1.5"></path><path d="M1398.27 681.26L1596.63 496.07" stroke="hsl(152.29999999999995, 100%, 37%)" stroke-width="1.5"></path><path d="M1568.9 -58.25L1568.9 -58.25" stroke="hsl(152.29999999999995, 100%, 37%)" stroke-width="1.5"></path><path d="M1568.9 -58.25L1593.45 81.27" stroke="hsl(152.29999999999995, 100%, 37%)" stroke-width="1.5"></path><path d="M1568.9 -58.25L1403.61 89.46" stroke="hsl(152.29999999999995, 100%, 37%)" stroke-width="1.5"></path><path d="M1568.9 -58.25L1568.41 190.59" stroke="hsl(152.29999999999995, 100%, 37%)" stroke-width="1.5"></path><path d="M1568.9 -58.25L1452.24 219.39" stroke="hsl(152.29999999999995, 100%, 37%)" stroke-width="1.5"></path><path d="M1568.9 -58.25L1305.02 93.04" stroke="hsl(152.29999999999995, 100%, 37%)" stroke-width="1.5"></path><path d="M1593.45 81.27L1593.45 81.27" stroke="hsl(152.29999999999995, 100%, 37%)" stroke-width="1.5"></path><path d="M1593.45 81.27L1568.41 190.59" stroke="hsl(152.29999999999995, 100%, 37%)" stroke-width="1.5"></path><path d="M1593.45 81.27L1452.24 219.39" stroke="hsl(152.29999999999995, 100%, 37%)" stroke-width="1.5"></path><path d="M1568.41 190.59L1568.41 190.59" stroke="hsl(152.29999999999995, 100%, 37%)" stroke-width="1.5"></path><path d="M1557.76 398.22L1557.76 398.22" stroke="hsl(152.29999999999995, 100%, 37%)" stroke-width="1.5"></path><path d="M1557.76 398.22L1596.63 496.07" stroke="hsl(152.29999999999995, 100%, 37%)" stroke-width="1.5"></path><path d="M1557.76 398.22L1452.24 219.39" stroke="hsl(152.29999999999995, 100%, 37%)" stroke-width="1.5"></path><path d="M1557.76 398.22L1568.41 190.59" stroke="hsl(152.29999999999995, 100%, 37%)" stroke-width="1.5"></path><path d="M1557.76 398.22L1402.22 555" stroke="hsl(152.29999999999995, 100%, 37%)" stroke-width="1.5"></path><path d="M1557.76 398.22L1555.98 668.51" stroke="hsl(152.29999999999995, 100%, 37%)" stroke-width="1.5"></path><path d="M1596.63 496.07L1596.63 496.07" stroke="hsl(152.29999999999995, 100%, 37%)" stroke-width="1.5"></path><path d="M1596.63 496.07L1555.98 668.51" stroke="hsl(152.29999999999995, 100%, 37%)" stroke-width="1.5"></path><path d="M1555.98 668.51L1555.98 668.51" stroke="hsl(152.29999999999995, 100%, 37%)" stroke-width="1.5"></path><circle r="25" cx="44.21" cy="710.07" fill="url(#SvgjsRadialGradient1009)"></circle><circle r="25" cx="529.12" cy="511.12" fill="url(#SvgjsRadialGradient1009)"></circle><circle r="25" cx="820.11" cy="361.11" fill="url(#SvgjsRadialGradient1009)"></circle><circle r="25" cx="830.02" cy="678.31" fill="url(#SvgjsRadialGradient1009)"></circle><circle r="25" cx="1157.19" cy="497.29" fill="url(#SvgjsRadialGradient1009)"></circle><circle r="25" cx="1248.62" cy="-43.27" fill="url(#SvgjsRadialGradient1009)"></circle><circle r="25" cx="1288.47" cy="191.23" fill="url(#SvgjsRadialGradient1009)"></circle><circle r="25" cx="1391.82" cy="365.83" fill="url(#SvgjsRadialGradient1009)"></circle><circle r="5" cx="-82.5" cy="690.38" fill="#80c8a7"></circle><circle r="5" cx="76.57" cy="503.69" fill="#80c8a7"></circle><circle r="5" cx="209.86" cy="546.17" fill="#80c8a7"></circle><circle r="5" cx="202.33" cy="710.71" fill="#80c8a7"></circle><circle r="5" cx="400.7" cy="523.57" fill="#80c8a7"></circle><circle r="5" cx="364.71" cy="659.48" fill="#80c8a7"></circle><circle r="5" cx="517.23" cy="704.79" fill="#80c8a7"></circle><circle r="5" cx="637.61" cy="375.15" fill="#80c8a7"></circle><circle r="5" cx="702.04" cy="555.16" fill="#80c8a7"></circle><circle r="5" cx="658.82" cy="676" fill="#80c8a7"></circle><circle r="5" cx="823.4" cy="549.56" fill="#80c8a7"></circle><circle r="5" cx="1007.89" cy="251.17" fill="#80c8a7"></circle><circle r="5" cx="1005.62" cy="384.65" fill="#80c8a7"></circle><circle r="5" cx="942.96" cy="693.86" fill="#80c8a7"></circle><circle r="5" cx="1102.11" cy="249.14" fill="#80c8a7"></circle><circle r="5" cx="1088.93" cy="385.53" fill="#80c8a7"></circle><circle r="5" cx="1305.02" cy="93.04" fill="#80c8a7"></circle><circle r="5" cx="1289.64" cy="342.31" fill="#80c8a7"></circle><circle r="5" cx="1283.89" cy="558.06" fill="#80c8a7"></circle><circle r="5" cx="1262.23" cy="698.78" fill="#80c8a7"></circle><circle r="5" cx="1439.63" cy="-39.38" fill="#80c8a7"></circle><circle r="5" cx="1403.61" cy="89.46" fill="#80c8a7"></circle><circle r="5" cx="1452.24" cy="219.39" fill="#80c8a7"></circle><circle r="5" cx="1402.22" cy="555" fill="#80c8a7"></circle><circle r="5" cx="1398.27" cy="681.26" fill="#80c8a7"></circle><circle r="5" cx="1568.9" cy="-58.25" fill="#80c8a7"></circle><circle r="5" cx="1593.45" cy="81.27" fill="#80c8a7"></circle><circle r="5" cx="1568.41" cy="190.59" fill="#80c8a7"></circle><circle r="5" cx="1557.76" cy="398.22" fill="#80c8a7"></circle><circle r="5" cx="1596.63" cy="496.07" fill="#80c8a7"></circle><circle r="5" cx="1555.98" cy="668.51" fill="#80c8a7"></circle></g><defs><mask id="SvgjsMask1008"><rect width="1440" height="560" fill="#ffffff"></rect></mask><radialGradient id="SvgjsRadialGradient1009"><stop stop-color="#ffffff" offset="0.1"></stop><stop stop-color="rgba(0, 145, 78, 1)" offset="0.2"></stop><stop stop-color="rgba(0, 145, 78, 0)" offset="1"></stop></radialGradient></defs></svg>