<svg version="1.2" xmlns="http://www.w3.org/2000/svg" viewBox="0 0 900 600" width="900" height="600">
	<title>wave-svg</title>
	<style>
		.s0 { fill: #0854a0 } 
	</style>
	<path id="Layer" class="s0" d="m0 453l18.8 10.2c18.9 10.1 56.5 30.5 94 40 37.5 9.5 74.9 8.1 112.4 8.3 37.5 0.2 75.1 1.8 112.6-8.3 37.5-10.2 74.9-32.2 112.4-37.4 37.5-5.1 75.1 6.5 112.6 21.2 37.5 14.7 74.9 32.3 112.4 37.3 37.5 5 75.1-2.6 112.6-10.8 37.5-8.2 74.9-16.8 93.5-21.2l18.7-4.3v112h-18.7c-18.6 0-56 0-93.5 0-37.5 0-75.1 0-112.6 0-37.5 0-74.9 0-112.4 0-37.5 0-75.1 0-112.6 0-37.5 0-74.9 0-112.4 0-37.5 0-75.1 0-112.6 0-37.5 0-74.9 0-112.4 0-37.5 0-75.1 0-94 0h-18.8z"/>
</svg>