<svg id="visual" viewBox="0 0 900 600" width="900" height="600" xmlns="http://www.w3.org/2000/svg" xmlns:xlink="http://www.w3.org/1999/xlink" version="1.1"><rect x="0" y="0" width="900" height="600" fill="#fefefe"></rect><path d="M0 488L18.8 485C37.7 482 75.3 476 112.8 470.7C150.3 465.3 187.7 460.7 225.2 463.8C262.7 467 300.3 478 337.8 494.7C375.3 511.3 412.7 533.7 450.2 542.8C487.7 552 525.3 548 562.8 543.7C600.3 539.3 637.7 534.7 675.2 529.2C712.7 523.7 750.3 517.3 787.8 522.3C825.3 527.3 862.7 543.7 881.3 551.8L900 560L900 601L881.3 601C862.7 601 825.3 601 787.8 601C750.3 601 712.7 601 675.2 601C637.7 601 600.3 601 562.8 601C525.3 601 487.7 601 450.2 601C412.7 601 375.3 601 337.8 601C300.3 601 262.7 601 225.2 601C187.7 601 150.3 601 112.8 601C75.3 601 37.7 601 18.8 601L0 601Z" fill="#0066ff" stroke-linecap="round" stroke-linejoin="miter"></path></svg>