<?xml version="1.0" encoding="utf-8"?>
<svg viewBox="0 0 900 600" xmlns="http://www.w3.org/2000/svg">
  <rect x="0" y="0" width="900" height="600" fill="#fefefe"/>
  <path d="M0 454L18.8 464.2C37.7 474.3 75.3 494.7 112.8 504.2C150.3 513.7 187.7 512.3 225.2 512.5C262.7 512.7 300.3 514.3 337.8 504.2C375.3 494 412.7 472 450.2 466.8C487.7 461.7 525.3 473.3 562.8 488C600.3 502.7 637.7 520.3 675.2 525.3C712.7 530.3 750.3 522.7 787.8 514.5C825.3 506.3 862.7 497.7 881.3 493.3L900 489L900 601L881.3 601C862.7 601 825.3 601 787.8 601C750.3 601 712.7 601 675.2 601C637.7 601 600.3 601 562.8 601C525.3 601 487.7 601 450.2 601C412.7 601 375.3 601 337.8 601C300.3 601 262.7 601 225.2 601C187.7 601 150.3 601 112.8 601C75.3 601 37.7 601 18.8 601L0 601Z" stroke-linecap="round" stroke-linejoin="miter" style="fill: rgb(0, 104, 56);"/>
</svg>